<svg width="16" height="16" version="1.1" viewBox="0 0 16 16" xmlns="http://www.w3.org/2000/svg">
<g transform="translate(0 -1036.4)">
<g transform="matrix(.53349 .53349 -.53349 .53349 561.06 484.4)" fill="#e0e0e0" stroke-width="1.3254">
<path transform="translate(0,1036.4)" d="m2 1c-0.55224 1e-4 -0.99995 0.4477-1 1v1.5h2.8848a1.5 1.5 0 0 1 1.1152-0.5 1.5 1.5 0 0 1 1.5 1.5 1.5 1.5 0 0 1-1.5 1.5 1.5 1.5 0 0 1-1.1152-0.5h-2.8848v1.5h-3c-0.55228 0-0.99999-0.4477-1-1 1.1e-5 -0.5523 0.44772-1 1-1h6.1348a1 1 0 0 0 0.86523 0.5 1 1 0 0 0 1-1 1 1 0 0 0-1-1 1 1 0 0 0-0.86328 0.5h-6.1367c-1.1046 0-2 0.89543-2 2 6.7e-6 1.1046 0.89544 2 2 2h3v6c7.35e-5 0.5523 0.44772 0.9999 1 1h8c0.55224-1e-4 0.99995-0.4477 1-1v-13z" color="#000000" color-rendering="auto" dominant-baseline="auto" image-rendering="auto" shape-rendering="auto" solid-color="#000000" stroke-width="1.3254" style="font-feature-settings:normal;font-variant-alternates:normal;font-variant-caps:normal;font-variant-ligatures:normal;font-variant-numeric:normal;font-variant-position:normal;isolation:auto;mix-blend-mode:normal;shape-padding:0;text-decoration-color:#000000;text-decoration-line:none;text-decoration-style:solid;text-indent:0;text-orientation:mixed;text-transform:none;white-space:normal"/>
<path d="m12 1038.4c0.70711 3.5356 0.70711 3.5356 1.4142 4.2427 0.70711 0.7071 2.1213 0.7071 2.8284 0 0.70711-0.7071 0.70711-2.1213 0-2.8284-0.70711-0.7072-0.70711-0.7072-4.2426-1.4143z" fill-rule="evenodd"/>
</g>
</g>
</svg>
