# Blender v2.92.0 OBJ File: ''
# www.blender.org
o Plane
v -64.000000 0.000000 64.000000
v 64.000000 0.000000 64.000000
v -64.000000 0.000000 -64.000000
v 64.000000 0.000000 -64.000000
v -64.000000 0.000000 -32.000000
v -64.000000 0.000000 0.000000
v -64.000000 0.000000 32.000000
v -32.000000 0.000000 64.000000
v 0.000000 0.000000 64.000000
v 32.000000 0.000000 64.000000
v 64.000000 0.000000 32.000000
v 64.000000 0.000000 0.000000
v 64.000000 0.000000 -32.000000
v 32.000000 0.000000 -64.000000
v 0.000000 0.000000 -64.000000
v -32.000000 0.000000 -64.000000
v -32.000000 0.000000 32.000000
v -32.000000 0.000000 0.000000
v -32.000000 0.000000 -32.000000
v 0.000000 0.000000 32.000000
v 0.000000 0.000000 0.000000
v 0.000000 0.000000 -32.000000
v 32.000000 0.000000 32.000000
v 32.000000 0.000000 0.000000
v 32.000000 0.000000 -32.000000
v -64.000000 0.000000 48.000000
v -64.000000 0.000000 -48.000000
v -64.000000 0.000000 -16.000000
v -64.000000 0.000000 16.000000
vt 0.750000 0.750000
vt 1.000000 0.750000
vt 1.000000 1.000000
vt 0.750000 1.000000
vt 0.000000 0.750000
vt 0.250000 0.750000
vt 0.250000 1.000000
vt 0.000000 1.000000
vt 0.000000 0.875000
vt 0.500000 0.750000
vt 0.500000 1.000000
vt 0.000000 0.000000
vt 0.250000 0.000000
vt 0.250000 0.250000
vt 0.000000 0.250000
vt 0.000000 0.125000
vt 0.250000 0.500000
vt 0.000000 0.500000
vt 0.000000 0.375000
vt 0.000000 0.625000
vt 0.500000 0.000000
vt 0.500000 0.250000
vt 0.500000 0.500000
vt 0.750000 0.000000
vt 0.750000 0.250000
vt 0.750000 0.500000
vt 1.000000 0.000000
vt 1.000000 0.250000
vt 1.000000 0.500000
vn 0.0000 1.0000 0.0000
s off
f 25/1/1 13/2/1 4/3/1 14/4/1
f 5/5/1 19/6/1 16/7/1 3/8/1 27/9/1
f 19/6/1 22/10/1 15/11/1 16/7/1
f 22/10/1 25/1/1 14/4/1 15/11/1
f 1/12/1 8/13/1 17/14/1 7/15/1 26/16/1
f 7/15/1 17/14/1 18/17/1 6/18/1 29/19/1
f 6/18/1 18/17/1 19/6/1 5/5/1 28/20/1
f 8/13/1 9/21/1 20/22/1 17/14/1
f 17/14/1 20/22/1 21/23/1 18/17/1
f 18/17/1 21/23/1 22/10/1 19/6/1
f 9/21/1 10/24/1 23/25/1 20/22/1
f 20/22/1 23/25/1 24/26/1 21/23/1
f 21/23/1 24/26/1 25/1/1 22/10/1
f 10/24/1 2/27/1 11/28/1 23/25/1
f 23/25/1 11/28/1 12/29/1 24/26/1
f 24/26/1 12/29/1 13/2/1 25/1/1
