<svg width="40" height="33" viewBox="0 0 40 33" fill="none" xmlns="http://www.w3.org/2000/svg">
<path d="M12.3955 21.651C14.4588 20.1869 18.4968 19 21.4147 19H37.2646C40.1825 19 40.8753 20.1869 38.8121 21.651L27.6045 29.6039C25.5412 31.068 21.5032 32.2548 18.5853 32.2548H2.73537C-0.18252 32.2548 -0.875335 31.068 1.18793 29.6039L12.3955 21.651Z" fill="#FC9C9C"/>
<path d="M12.3955 11.651C14.4588 10.1869 18.4968 9 21.4147 9H37.2646C40.1825 9 40.8753 10.1869 38.8121 11.651L27.6045 19.6039C25.5412 21.068 21.5032 22.2548 18.5853 22.2548H2.73537C-0.18252 22.2548 -0.875335 21.068 1.18793 19.6039L12.3955 11.651Z" fill="#FC9C9C"/>
<path d="M12.3955 2.65097C14.4588 1.18688 18.4968 0 21.4147 0H37.2646C40.1825 0 40.8753 1.18688 38.8121 2.65097L27.6045 10.6039C25.5412 12.068 21.5032 13.2548 18.5853 13.2548H2.73537C-0.18252 13.2548 -0.875335 12.068 1.18793 10.6039L12.3955 2.65097Z" fill="#FC9C9C"/>
</svg>
