<svg width="52" height="36" viewBox="0 0 52 36" fill="none" xmlns="http://www.w3.org/2000/svg">
<path fill-rule="evenodd" clip-rule="evenodd" d="M8.68985 16.3562L0.373117 31.4229C-0.787648 33.5258 0.900498 36 3.49605 36H25.7789H48.5049C50.9882 36 52.6777 33.718 51.7352 31.6369L38.295 1.96226C37.1135 -0.646351 33.039 -0.656453 31.8418 1.94626L23.4513 20.1867L20.2507 25.9849L14.9357 16.3562C13.649 14.0252 9.97657 14.0252 8.68985 16.3562ZM32.2438 11.93C31.709 11.607 30.9864 11.7379 30.6298 12.2224C30.2733 12.7068 30.4178 13.3613 30.9526 13.6843L34.4441 15.7927C34.8351 16.0288 35.3444 16.0288 35.7353 15.7927L39.2269 13.6843C39.7617 13.3613 39.9062 12.7068 39.5496 12.2224C39.1931 11.7379 38.4705 11.607 37.9357 11.93L35.0897 13.6486L32.2438 11.93ZM8.96683 25.6348C8.432 25.3119 7.70941 25.4428 7.35286 25.9272C6.99631 26.4117 7.14083 27.0662 7.67565 27.3892L11.1672 29.4976C11.5581 29.7337 12.0674 29.7337 12.4584 29.4976L15.9499 27.3892C16.4847 27.0662 16.6293 26.4117 16.2727 25.9272C15.9162 25.4428 15.1936 25.3119 14.6587 25.6348L11.8128 27.3534L8.96683 25.6348Z" fill="#FC9C9C"/>
</svg>
